<svg xmlns="http://www.w3.org/2000/svg" viewBox="0 0 200 200" fill="none">
  <defs>
    <linearGradient id="gold" x1="34" y1="10" x2="158" y2="190" gradientUnits="userSpaceOnUse">
      <stop stop-color="#f5dfaa"/>
      <stop offset=".27" stop-color="#c4a265"/>
      <stop offset=".55" stop-color="#806842"/>
      <stop offset=".79" stop-color="#c6af7e"/>
      <stop offset="1" stop-color="#91a9af"/>
    </linearGradient>
  </defs>
  <circle cx="100" cy="100" r="96" stroke="url(#gold)" stroke-width=".6" opacity=".5"/>
  <circle cx="100" cy="100" r="93" stroke="url(#gold)" stroke-width=".8" stroke-dasharray="76 21 29 48 57 61" opacity=".9" transform="rotate(-58 100 100)"/>
  <circle cx="100" cy="100" r="96" stroke="#e0c38b" stroke-width="2.6" stroke-dasharray=".65 11.916" opacity=".42"/>
  <path d="M40 27a94 94 0 0 1 23-14M137 187a94 94 0 0 0 23-14" stroke="#f3d9a0" stroke-width="1" opacity=".75"/>
  <path d="m100 0 1.3 3.8 3.7 1.2-3.7 1.2L100 10l-1.3-3.8L95 5l3.7-1.2Z" fill="#f5dfaf"/>
  <path d="m195 96 1.1 2.9 2.9 1.1-2.9 1.1-1.1 2.9-1.1-2.9-2.9-1.1 2.9-1.1Z" fill="#d7bf8b" opacity=".8"/>
  <path d="m100 193 2 3-2 3-2-3ZM4 97l2 3-2 3-2-3Z" fill="#c8ac79" opacity=".85"/>
  <circle cx="32" cy="32" r="1.5" fill="#f2d9a7"/>
  <circle cx="168" cy="168" r="1.3" fill="#b7c6c1"/>
</svg>
